<mxfile host="app.diagrams.net" modified="2021-05-07T08:31:59.213Z" agent="5.0 (Windows NT 10.0; Win64; x64) AppleWebKit/537.36 (KHTML, like Gecko) Chrome/90.0.4430.93 Safari/537.36" etag="5i2FZ4Bd3Rsy2mXmIY_8" version="14.6.10" type="github" pages="3">
  <diagram id="V1oaGlMTSQQ7UraVtOu0" name="第 1 页">
    <mxGraphModel dx="2831" dy="1440" grid="1" gridSize="10" guides="1" tooltips="1" connect="1" arrows="1" fold="1" page="0" pageScale="1" pageWidth="827" pageHeight="1169" math="1" shadow="0">
      <root>
        <mxCell id="0" />
        <mxCell id="1" parent="0" />
        <mxCell id="x8S9NzMH1xu4llDqmko2-1" value="" style="whiteSpace=wrap;html=1;aspect=fixed;fontStyle=1;fillColor=#dae8fc;strokeColor=#6c8ebf;" vertex="1" parent="1">
          <mxGeometry x="-200" y="120" width="80" height="80" as="geometry" />
        </mxCell>
        <mxCell id="x8S9NzMH1xu4llDqmko2-2" value="" style="whiteSpace=wrap;html=1;aspect=fixed;fontStyle=1;fillColor=#f5f5f5;strokeColor=#666666;fontColor=#333333;" vertex="1" parent="1">
          <mxGeometry x="-120" y="120" width="80" height="80" as="geometry" />
        </mxCell>
        <mxCell id="x8S9NzMH1xu4llDqmko2-3" value="&lt;font style=&quot;font-size: 50px&quot;&gt;···&lt;/font&gt;" style="rounded=0;whiteSpace=wrap;html=1;fontStyle=1;fillColor=#f5f5f5;strokeColor=#666666;fontColor=#333333;" vertex="1" parent="1">
          <mxGeometry x="-40" y="120" width="160" height="80" as="geometry" />
        </mxCell>
        <mxCell id="x8S9NzMH1xu4llDqmko2-4" value="" style="whiteSpace=wrap;html=1;aspect=fixed;fontStyle=1;fillColor=#f5f5f5;strokeColor=#666666;fontColor=#333333;" vertex="1" parent="1">
          <mxGeometry x="120" y="120" width="80" height="80" as="geometry" />
        </mxCell>
        <mxCell id="x8S9NzMH1xu4llDqmko2-5" value="" style="whiteSpace=wrap;html=1;aspect=fixed;fontStyle=1;fillColor=#f8cecc;strokeColor=#b85450;" vertex="1" parent="1">
          <mxGeometry x="200" y="120" width="80" height="80" as="geometry" />
        </mxCell>
        <mxCell id="x8S9NzMH1xu4llDqmko2-6" value="" style="whiteSpace=wrap;html=1;aspect=fixed;fontStyle=1;fillColor=#f5f5f5;strokeColor=#666666;fontColor=#333333;" vertex="1" parent="1">
          <mxGeometry x="-200" y="440" width="80" height="80" as="geometry" />
        </mxCell>
        <mxCell id="x8S9NzMH1xu4llDqmko2-7" value="" style="whiteSpace=wrap;html=1;aspect=fixed;fontStyle=1;fillColor=#dae8fc;strokeColor=#6c8ebf;" vertex="1" parent="1">
          <mxGeometry x="-120" y="440" width="80" height="80" as="geometry" />
        </mxCell>
        <mxCell id="x8S9NzMH1xu4llDqmko2-8" value="&lt;font style=&quot;font-size: 50px&quot;&gt;···&lt;/font&gt;" style="rounded=0;whiteSpace=wrap;html=1;fontStyle=1;fillColor=#f5f5f5;strokeColor=#666666;fontColor=#333333;" vertex="1" parent="1">
          <mxGeometry x="-40" y="440" width="160" height="80" as="geometry" />
        </mxCell>
        <mxCell id="x8S9NzMH1xu4llDqmko2-22" style="edgeStyle=none;rounded=0;orthogonalLoop=1;jettySize=auto;html=1;entryX=0.521;entryY=0.605;entryDx=0;entryDy=0;entryPerimeter=0;strokeWidth=3;fontStyle=1;exitX=0.5;exitY=0;exitDx=0;exitDy=0;" edge="1" parent="1" source="x8S9NzMH1xu4llDqmko2-9" target="x8S9NzMH1xu4llDqmko2-5">
          <mxGeometry relative="1" as="geometry" />
        </mxCell>
        <mxCell id="x8S9NzMH1xu4llDqmko2-9" value="" style="whiteSpace=wrap;html=1;aspect=fixed;fontStyle=1;fillColor=#f8cecc;strokeColor=#b85450;" vertex="1" parent="1">
          <mxGeometry x="120" y="440" width="80" height="80" as="geometry" />
        </mxCell>
        <mxCell id="x8S9NzMH1xu4llDqmko2-10" value="" style="whiteSpace=wrap;html=1;aspect=fixed;fontStyle=1;fillColor=#f5f5f5;strokeColor=#666666;fontColor=#333333;" vertex="1" parent="1">
          <mxGeometry x="200" y="440" width="80" height="80" as="geometry" />
        </mxCell>
        <mxCell id="x8S9NzMH1xu4llDqmko2-12" style="orthogonalLoop=1;jettySize=auto;html=1;entryX=0.537;entryY=0.5;entryDx=0;entryDy=0;entryPerimeter=0;rounded=0;strokeWidth=3;fontStyle=1;" edge="1" parent="1" source="-CqkMzrQlvju-AGW4vCq-1" target="x8S9NzMH1xu4llDqmko2-1">
          <mxGeometry relative="1" as="geometry">
            <mxPoint x="-240" y="180" as="targetPoint" />
            <mxPoint x="-321.1999999999998" y="328.5" as="sourcePoint" />
          </mxGeometry>
        </mxCell>
        <mxCell id="x8S9NzMH1xu4llDqmko2-13" style="edgeStyle=none;rounded=0;orthogonalLoop=1;jettySize=auto;html=1;entryX=0.458;entryY=0.439;entryDx=0;entryDy=0;entryPerimeter=0;strokeWidth=3;fontStyle=1;exitX=1;exitY=1;exitDx=0;exitDy=0;" edge="1" parent="1" source="-CqkMzrQlvju-AGW4vCq-1" target="x8S9NzMH1xu4llDqmko2-7">
          <mxGeometry relative="1" as="geometry">
            <mxPoint x="-340" y="430" as="sourcePoint" />
          </mxGeometry>
        </mxCell>
        <mxCell id="x8S9NzMH1xu4llDqmko2-14" value="&lt;font style=&quot;font-size: 30px&quot;&gt;$$h_{1}(e)$$&lt;/font&gt;" style="text;html=1;align=center;verticalAlign=middle;resizable=0;points=[];autosize=1;strokeColor=none;rotation=-39.4;fontStyle=1" vertex="1" parent="1">
          <mxGeometry x="-370" y="210" width="190" height="30" as="geometry" />
        </mxCell>
        <mxCell id="x8S9NzMH1xu4llDqmko2-15" value="&lt;font style=&quot;font-size: 30px&quot;&gt;$$h_{2}(e)$$&lt;/font&gt;" style="text;html=1;align=center;verticalAlign=middle;resizable=0;points=[];autosize=1;strokeColor=none;rotation=26.3;fontStyle=1" vertex="1" parent="1">
          <mxGeometry x="-355" y="400" width="190" height="30" as="geometry" />
        </mxCell>
        <mxCell id="x8S9NzMH1xu4llDqmko2-19" style="edgeStyle=none;orthogonalLoop=1;jettySize=auto;html=1;exitX=0.5;exitY=1;exitDx=0;exitDy=0;entryX=0.458;entryY=0.522;entryDx=0;entryDy=0;entryPerimeter=0;strokeWidth=3;fontStyle=1;rounded=0;" edge="1" parent="1" source="x8S9NzMH1xu4llDqmko2-1" target="x8S9NzMH1xu4llDqmko2-9">
          <mxGeometry relative="1" as="geometry" />
        </mxCell>
        <mxCell id="x8S9NzMH1xu4llDqmko2-20" value="&lt;font style=&quot;font-size: 35px&quot;&gt;kickout&lt;/font&gt;" style="text;html=1;align=center;verticalAlign=middle;resizable=0;points=[];autosize=1;strokeColor=none;rotation=41.2;fontStyle=1" vertex="1" parent="1">
          <mxGeometry x="-110" y="255" width="140" height="30" as="geometry" />
        </mxCell>
        <mxCell id="x8S9NzMH1xu4llDqmko2-21" value="&lt;font style=&quot;font-size: 30px&quot;&gt;$$h_{2}(e&#39;)$$&lt;/font&gt;" style="text;html=1;align=center;verticalAlign=middle;resizable=0;points=[];autosize=1;strokeColor=none;rotation=42.7;fontStyle=1" vertex="1" parent="1">
          <mxGeometry x="-160" y="320" width="200" height="30" as="geometry" />
        </mxCell>
        <mxCell id="x8S9NzMH1xu4llDqmko2-23" value="&lt;font style=&quot;font-size: 35px&quot;&gt;kickout&lt;/font&gt;" style="text;html=1;align=center;verticalAlign=middle;resizable=0;points=[];autosize=1;strokeColor=none;rotation=-72.2;fontStyle=1" vertex="1" parent="1">
          <mxGeometry x="83" y="337" width="140" height="30" as="geometry" />
        </mxCell>
        <mxCell id="x8S9NzMH1xu4llDqmko2-24" value="&lt;font style=&quot;font-size: 30px&quot;&gt;$$h_{1}(e&#39;&#39;)$$&lt;/font&gt;" style="text;html=1;align=center;verticalAlign=middle;resizable=0;points=[];autosize=1;strokeColor=none;rotation=-72.4;fontStyle=1" vertex="1" parent="1">
          <mxGeometry x="122" y="311" width="210" height="30" as="geometry" />
        </mxCell>
        <mxCell id="x8S9NzMH1xu4llDqmko2-40" style="edgeStyle=none;rounded=0;orthogonalLoop=1;jettySize=auto;html=1;exitX=0;exitY=1;exitDx=0;exitDy=0;entryX=0;entryY=0;entryDx=0;entryDy=0;endSize=6;strokeColor=#666666;strokeWidth=2;endArrow=none;endFill=0;fontStyle=1;fillColor=#f5f5f5;" edge="1" parent="1" source="x8S9NzMH1xu4llDqmko2-25" target="x8S9NzMH1xu4llDqmko2-33">
          <mxGeometry relative="1" as="geometry" />
        </mxCell>
        <mxCell id="x8S9NzMH1xu4llDqmko2-41" style="edgeStyle=none;rounded=0;orthogonalLoop=1;jettySize=auto;html=1;exitX=1;exitY=1;exitDx=0;exitDy=0;entryX=1;entryY=0;entryDx=0;entryDy=0;endSize=6;strokeColor=#666666;strokeWidth=2;endArrow=none;endFill=0;startArrow=none;startFill=0;fontStyle=1;fillColor=#f5f5f5;" edge="1" parent="1" source="x8S9NzMH1xu4llDqmko2-25" target="x8S9NzMH1xu4llDqmko2-34">
          <mxGeometry relative="1" as="geometry" />
        </mxCell>
        <mxCell id="x8S9NzMH1xu4llDqmko2-25" value="&lt;font style=&quot;font-size: 25px&quot;&gt;&lt;span&gt;entry&lt;sub&gt;B&lt;/sub&gt;&lt;/span&gt;&lt;/font&gt;" style="whiteSpace=wrap;html=1;aspect=fixed;fontStyle=1;fillColor=#f5f5f5;strokeColor=#666666;fontColor=#333333;" vertex="1" parent="1">
          <mxGeometry x="475" y="120" width="80" height="80" as="geometry" />
        </mxCell>
        <mxCell id="x8S9NzMH1xu4llDqmko2-26" value="&lt;font style=&quot;font-size: 50px&quot;&gt;···&lt;/font&gt;" style="whiteSpace=wrap;html=1;aspect=fixed;fontStyle=1;fillColor=#f5f5f5;strokeColor=#666666;fontColor=#333333;" vertex="1" parent="1">
          <mxGeometry x="555" y="120" width="80" height="80" as="geometry" />
        </mxCell>
        <mxCell id="x8S9NzMH1xu4llDqmko2-27" value="&lt;font style=&quot;font-size: 25px&quot;&gt;&lt;span&gt;entry&lt;sub&gt;2&lt;/sub&gt;&lt;/span&gt;&lt;/font&gt;" style="whiteSpace=wrap;html=1;aspect=fixed;fontStyle=1;fillColor=#f5f5f5;strokeColor=#666666;fontColor=#333333;" vertex="1" parent="1">
          <mxGeometry x="635" y="120" width="80" height="80" as="geometry" />
        </mxCell>
        <mxCell id="x8S9NzMH1xu4llDqmko2-28" value="&lt;font style=&quot;font-size: 25px&quot;&gt;&lt;span&gt;entry&lt;sub&gt;1&lt;/sub&gt;&lt;/span&gt;&lt;/font&gt;" style="whiteSpace=wrap;html=1;aspect=fixed;fontStyle=1;fillColor=#f5f5f5;strokeColor=#666666;fontColor=#333333;" vertex="1" parent="1">
          <mxGeometry x="715" y="120" width="80" height="80" as="geometry" />
        </mxCell>
        <mxCell id="x8S9NzMH1xu4llDqmko2-29" value="&lt;font style=&quot;font-size: 30px&quot;&gt;&lt;span&gt;bucket&lt;/span&gt;&lt;/font&gt;" style="text;html=1;align=center;verticalAlign=middle;resizable=0;points=[];autosize=1;fontStyle=1;" vertex="1" parent="1">
          <mxGeometry x="580" y="80" width="110" height="30" as="geometry" />
        </mxCell>
        <mxCell id="x8S9NzMH1xu4llDqmko2-33" value="&lt;font style=&quot;font-size: 25px&quot;&gt;fingerprint&lt;/font&gt;" style="rounded=0;whiteSpace=wrap;html=1;fontStyle=1;fillColor=#f5f5f5;strokeColor=#666666;fontColor=#333333;" vertex="1" parent="1">
          <mxGeometry x="360" y="320" width="160" height="80" as="geometry" />
        </mxCell>
        <mxCell id="x8S9NzMH1xu4llDqmko2-34" value="&lt;font style=&quot;font-size: 25px&quot;&gt;counter&lt;/font&gt;" style="rounded=0;whiteSpace=wrap;html=1;fontStyle=1;fillColor=#f5f5f5;strokeColor=#666666;fontColor=#333333;" vertex="1" parent="1">
          <mxGeometry x="520" y="320" width="160" height="80" as="geometry" />
        </mxCell>
        <mxCell id="x8S9NzMH1xu4llDqmko2-42" value="&lt;font style=&quot;font-size: 30px&quot;&gt;entry&lt;/font&gt;" style="text;html=1;align=center;verticalAlign=middle;resizable=0;points=[];autosize=1;fontStyle=1;" vertex="1" parent="1">
          <mxGeometry x="475" y="410" width="90" height="30" as="geometry" />
        </mxCell>
        <mxCell id="x8S9NzMH1xu4llDqmko2-48" style="rounded=0;orthogonalLoop=1;jettySize=auto;html=1;startArrow=none;startFill=0;endArrow=classic;endFill=1;endSize=6;strokeColor=#000000;strokeWidth=2;exitX=0.287;exitY=0.483;exitDx=0;exitDy=0;exitPerimeter=0;" edge="1" parent="1" source="x8S9NzMH1xu4llDqmko2-46">
          <mxGeometry relative="1" as="geometry">
            <mxPoint x="-200" y="64" as="targetPoint" />
            <mxPoint x="-40" y="90" as="sourcePoint" />
          </mxGeometry>
        </mxCell>
        <mxCell id="x8S9NzMH1xu4llDqmko2-46" value="&lt;font style=&quot;font-size: 35px&quot;&gt;$$\frac{m}{2}$$&lt;/font&gt;" style="text;html=1;align=center;verticalAlign=middle;resizable=0;points=[];autosize=1;strokeColor=none;" vertex="1" parent="1">
          <mxGeometry x="-90" y="50" width="260" height="30" as="geometry" />
        </mxCell>
        <mxCell id="x8S9NzMH1xu4llDqmko2-50" style="rounded=0;orthogonalLoop=1;jettySize=auto;html=1;startArrow=none;startFill=0;endArrow=classic;endFill=1;endSize=6;strokeColor=#000000;strokeWidth=2;exitX=0.7;exitY=0.496;exitDx=0;exitDy=0;exitPerimeter=0;" edge="1" parent="1" source="x8S9NzMH1xu4llDqmko2-46">
          <mxGeometry relative="1" as="geometry">
            <mxPoint x="280" y="65" as="targetPoint" />
            <mxPoint x="488.0500000000002" y="89.57999999999997" as="sourcePoint" />
          </mxGeometry>
        </mxCell>
        <mxCell id="x8S9NzMH1xu4llDqmko2-45" style="edgeStyle=orthogonalEdgeStyle;orthogonalLoop=1;jettySize=auto;html=1;entryX=0.5;entryY=0;entryDx=0;entryDy=0;entryPerimeter=0;startArrow=none;startFill=0;endArrow=classic;endFill=1;endSize=6;strokeColor=#000000;strokeWidth=2;fontStyle=1;jumpStyle=gap;jumpSize=10;rounded=1;" edge="1" parent="1" source="x8S9NzMH1xu4llDqmko2-5" target="x8S9NzMH1xu4llDqmko2-29">
          <mxGeometry relative="1" as="geometry">
            <mxPoint x="240" y="60" as="sourcePoint" />
            <Array as="points">
              <mxPoint x="240" />
              <mxPoint x="635" />
            </Array>
          </mxGeometry>
        </mxCell>
        <mxCell id="x8S9NzMH1xu4llDqmko2-53" value="&lt;font style=&quot;font-size: 35px&quot;&gt;$$h_{1}(e) = hash(e)$$&lt;/font&gt;" style="text;html=1;align=center;verticalAlign=middle;resizable=0;points=[];autosize=1;strokeColor=none;" vertex="1" parent="1">
          <mxGeometry x="-390" y="610" width="380" height="30" as="geometry" />
        </mxCell>
        <mxCell id="x8S9NzMH1xu4llDqmko2-55" value="&lt;font style=&quot;font-size: 35px&quot;&gt;$$h_{2}(e) = h_{1}(e) \oplus hash(e&#39;s\ fingerprint)$$&lt;/font&gt;" style="text;html=1;align=center;verticalAlign=middle;resizable=0;points=[];autosize=1;strokeColor=none;" vertex="1" parent="1">
          <mxGeometry x="-20" y="610" width="810" height="30" as="geometry" />
        </mxCell>
        <mxCell id="-CqkMzrQlvju-AGW4vCq-1" value="&lt;font style=&quot;font-size: 40px&quot;&gt;$$e$$&lt;/font&gt;" style="ellipse;whiteSpace=wrap;html=1;aspect=fixed;shadow=0;strokeColor=#6c8ebf;fillColor=#dae8fc;" vertex="1" parent="1">
          <mxGeometry x="-390" y="291" width="70" height="70" as="geometry" />
        </mxCell>
        <mxCell id="-CqkMzrQlvju-AGW4vCq-2" style="edgeStyle=none;curved=1;jumpStyle=gap;jumpSize=10;orthogonalLoop=1;jettySize=auto;html=1;exitX=0.5;exitY=0;exitDx=0;exitDy=0;startArrow=none;startFill=0;endArrow=none;endFill=0;strokeColor=#000000;strokeWidth=4;" edge="1" parent="1" source="-CqkMzrQlvju-AGW4vCq-1" target="-CqkMzrQlvju-AGW4vCq-1">
          <mxGeometry relative="1" as="geometry" />
        </mxCell>
        <mxCell id="-CqkMzrQlvju-AGW4vCq-3" value="&lt;font style=&quot;font-size: 30px&quot;&gt;$$e&#39;$$&lt;/font&gt;" style="ellipse;whiteSpace=wrap;html=1;aspect=fixed;shadow=0;strokeColor=#b85450;fillColor=#f8cecc;rotation=41.8;" vertex="1" parent="1">
          <mxGeometry x="9.14" y="309.5" width="46" height="46" as="geometry" />
        </mxCell>
        <mxCell id="-CqkMzrQlvju-AGW4vCq-4" value="&lt;font style=&quot;font-size: 30px&quot;&gt;$$e&#39;&#39;$$&lt;/font&gt;" style="ellipse;whiteSpace=wrap;html=1;aspect=fixed;shadow=0;strokeColor=#b85450;fillColor=#f8cecc;rotation=-67.6;" vertex="1" parent="1">
          <mxGeometry x="161" y="232" width="46" height="46" as="geometry" />
        </mxCell>
      </root>
    </mxGraphModel>
  </diagram>
  <diagram name="第 1 页 的副本" id="7mlBD-bHxinkEdR7ouqE">
    <mxGraphModel dx="3955" dy="2620" grid="1" gridSize="10" guides="1" tooltips="1" connect="1" arrows="1" fold="1" page="0" pageScale="1" pageWidth="827" pageHeight="1169" math="1" shadow="0">
      <root>
        <mxCell id="ixnJGF-VWS_1nKsYmfAi-0" />
        <mxCell id="ixnJGF-VWS_1nKsYmfAi-1" parent="ixnJGF-VWS_1nKsYmfAi-0" />
        <mxCell id="D7BLiVb56YLApS2BH-3u-14" style="edgeStyle=none;rounded=0;jumpStyle=gap;jumpSize=10;orthogonalLoop=1;jettySize=auto;html=1;startArrow=none;startFill=0;endArrow=classic;endFill=1;endSize=6;strokeColor=#000000;strokeWidth=3;exitX=1;exitY=1;exitDx=0;exitDy=0;" edge="1" parent="ixnJGF-VWS_1nKsYmfAi-1" source="NqLgnIdzLpOWNiTf5Q1N-0" target="D7BLiVb56YLApS2BH-3u-8">
          <mxGeometry relative="1" as="geometry">
            <mxPoint x="314" y="-180" as="targetPoint" />
            <mxPoint x="299" y="-400" as="sourcePoint" />
          </mxGeometry>
        </mxCell>
        <mxCell id="D7BLiVb56YLApS2BH-3u-4" value="&lt;font style=&quot;font-size: 40px&quot;&gt;data stream&lt;/font&gt;" style="ellipse;shape=cloud;whiteSpace=wrap;html=1;shadow=0;fillColor=#f5f5f5;strokeColor=#666666;fontColor=#333333;" vertex="1" parent="ixnJGF-VWS_1nKsYmfAi-1">
          <mxGeometry x="-218.5" y="-650" width="1098.5" height="220" as="geometry" />
        </mxCell>
        <mxCell id="-XqIfu-6GYl3lcrzQxEl-0" value="" style="whiteSpace=wrap;html=1;aspect=fixed;fontStyle=1;fillColor=#dae8fc;strokeColor=#6c8ebf;" vertex="1" parent="ixnJGF-VWS_1nKsYmfAi-1">
          <mxGeometry x="-200" y="120" width="80" height="80" as="geometry" />
        </mxCell>
        <mxCell id="-XqIfu-6GYl3lcrzQxEl-1" value="" style="whiteSpace=wrap;html=1;aspect=fixed;fontStyle=1;fillColor=#f5f5f5;strokeColor=#666666;fontColor=#333333;" vertex="1" parent="ixnJGF-VWS_1nKsYmfAi-1">
          <mxGeometry x="-120" y="120" width="80" height="80" as="geometry" />
        </mxCell>
        <mxCell id="-XqIfu-6GYl3lcrzQxEl-2" value="&lt;font style=&quot;font-size: 50px&quot;&gt;···&lt;/font&gt;" style="rounded=0;whiteSpace=wrap;html=1;fontStyle=1;fillColor=#f5f5f5;strokeColor=#666666;fontColor=#333333;" vertex="1" parent="ixnJGF-VWS_1nKsYmfAi-1">
          <mxGeometry x="-40" y="120" width="160" height="80" as="geometry" />
        </mxCell>
        <mxCell id="-XqIfu-6GYl3lcrzQxEl-3" value="" style="whiteSpace=wrap;html=1;aspect=fixed;fontStyle=1;fillColor=#f5f5f5;strokeColor=#666666;fontColor=#333333;" vertex="1" parent="ixnJGF-VWS_1nKsYmfAi-1">
          <mxGeometry x="120" y="120" width="80" height="80" as="geometry" />
        </mxCell>
        <mxCell id="D7BLiVb56YLApS2BH-3u-3" style="edgeStyle=none;rounded=0;jumpStyle=gap;jumpSize=10;orthogonalLoop=1;jettySize=auto;html=1;entryX=0;entryY=0.5;entryDx=0;entryDy=0;startArrow=none;startFill=0;endArrow=classic;endFill=1;endSize=6;strokeColor=#666666;strokeWidth=3;fillColor=#f5f5f5;" edge="1" parent="ixnJGF-VWS_1nKsYmfAi-1" source="-XqIfu-6GYl3lcrzQxEl-4" target="-XqIfu-6GYl3lcrzQxEl-23">
          <mxGeometry relative="1" as="geometry" />
        </mxCell>
        <mxCell id="-XqIfu-6GYl3lcrzQxEl-4" value="" style="whiteSpace=wrap;html=1;aspect=fixed;fontStyle=1;fillColor=#f5f5f5;strokeColor=#666666;fontColor=#333333;" vertex="1" parent="ixnJGF-VWS_1nKsYmfAi-1">
          <mxGeometry x="200" y="120" width="80" height="80" as="geometry" />
        </mxCell>
        <mxCell id="D7BLiVb56YLApS2BH-3u-0" style="edgeStyle=none;rounded=0;jumpStyle=gap;jumpSize=10;orthogonalLoop=1;jettySize=auto;html=1;exitX=0;exitY=1;exitDx=0;exitDy=0;dashed=1;startArrow=none;startFill=0;endArrow=none;endFill=0;endSize=6;strokeColor=#666666;strokeWidth=3;fillColor=#f5f5f5;" edge="1" parent="ixnJGF-VWS_1nKsYmfAi-1" source="-XqIfu-6GYl3lcrzQxEl-5">
          <mxGeometry relative="1" as="geometry">
            <mxPoint x="-200" y="600" as="targetPoint" />
          </mxGeometry>
        </mxCell>
        <mxCell id="5GyCDiw_aOwiqqZgQbfZ-0" style="edgeStyle=orthogonalEdgeStyle;jumpStyle=gap;jumpSize=10;orthogonalLoop=1;jettySize=auto;html=1;exitX=0;exitY=0.5;exitDx=0;exitDy=0;entryX=0;entryY=0.5;entryDx=0;entryDy=0;startArrow=none;startFill=0;endArrow=classic;endFill=1;strokeWidth=5;" edge="1" parent="ixnJGF-VWS_1nKsYmfAi-1" source="-XqIfu-6GYl3lcrzQxEl-5" target="D7BLiVb56YLApS2BH-3u-13">
          <mxGeometry relative="1" as="geometry">
            <Array as="points">
              <mxPoint x="-300" y="480" />
              <mxPoint x="-300" y="-110" />
            </Array>
          </mxGeometry>
        </mxCell>
        <mxCell id="-XqIfu-6GYl3lcrzQxEl-5" value="" style="whiteSpace=wrap;html=1;aspect=fixed;fontStyle=1;fillColor=#f5f5f5;strokeColor=#666666;fontColor=#333333;" vertex="1" parent="ixnJGF-VWS_1nKsYmfAi-1">
          <mxGeometry x="-200" y="440" width="80" height="80" as="geometry" />
        </mxCell>
        <mxCell id="-XqIfu-6GYl3lcrzQxEl-6" value="" style="whiteSpace=wrap;html=1;aspect=fixed;fontStyle=1;fillColor=#f5f5f5;strokeColor=#666666;fontColor=#333333;" vertex="1" parent="ixnJGF-VWS_1nKsYmfAi-1">
          <mxGeometry x="-120" y="440" width="80" height="80" as="geometry" />
        </mxCell>
        <mxCell id="-XqIfu-6GYl3lcrzQxEl-7" value="&lt;font style=&quot;font-size: 50px&quot;&gt;···&lt;/font&gt;" style="rounded=0;whiteSpace=wrap;html=1;fontStyle=1;fillColor=#f5f5f5;strokeColor=#666666;fontColor=#333333;" vertex="1" parent="ixnJGF-VWS_1nKsYmfAi-1">
          <mxGeometry x="-40" y="440" width="160" height="80" as="geometry" />
        </mxCell>
        <mxCell id="-XqIfu-6GYl3lcrzQxEl-9" value="" style="whiteSpace=wrap;html=1;aspect=fixed;fontStyle=1;fillColor=#dae8fc;strokeColor=#6c8ebf;" vertex="1" parent="ixnJGF-VWS_1nKsYmfAi-1">
          <mxGeometry x="120" y="440" width="80" height="80" as="geometry" />
        </mxCell>
        <mxCell id="D7BLiVb56YLApS2BH-3u-1" style="edgeStyle=none;rounded=0;jumpStyle=gap;jumpSize=10;orthogonalLoop=1;jettySize=auto;html=1;exitX=1;exitY=1;exitDx=0;exitDy=0;dashed=1;startArrow=none;startFill=0;endArrow=none;endFill=0;endSize=6;strokeColor=#666666;strokeWidth=3;fillColor=#f5f5f5;" edge="1" parent="ixnJGF-VWS_1nKsYmfAi-1" source="-XqIfu-6GYl3lcrzQxEl-10">
          <mxGeometry relative="1" as="geometry">
            <mxPoint x="280" y="600" as="targetPoint" />
          </mxGeometry>
        </mxCell>
        <mxCell id="-XqIfu-6GYl3lcrzQxEl-10" value="" style="whiteSpace=wrap;html=1;aspect=fixed;fontStyle=1;fillColor=#f5f5f5;strokeColor=#666666;fontColor=#333333;" vertex="1" parent="ixnJGF-VWS_1nKsYmfAi-1">
          <mxGeometry x="200" y="440" width="80" height="80" as="geometry" />
        </mxCell>
        <mxCell id="-XqIfu-6GYl3lcrzQxEl-14" value="&lt;font style=&quot;font-size: 30px&quot;&gt;$$h_{1}(e)$$&lt;/font&gt;" style="text;html=1;align=center;verticalAlign=middle;resizable=0;points=[];autosize=1;strokeColor=none;rotation=0;fontStyle=1" vertex="1" parent="ixnJGF-VWS_1nKsYmfAi-1">
          <mxGeometry x="-140" y="60" width="190" height="30" as="geometry" />
        </mxCell>
        <mxCell id="-XqIfu-6GYl3lcrzQxEl-15" value="&lt;font style=&quot;font-size: 30px&quot;&gt;$$h_{2}(e)$$&lt;/font&gt;" style="text;html=1;align=center;verticalAlign=middle;resizable=0;points=[];autosize=1;rotation=0;fontStyle=1;" vertex="1" parent="ixnJGF-VWS_1nKsYmfAi-1">
          <mxGeometry x="10" y="370" width="190" height="30" as="geometry" />
        </mxCell>
        <mxCell id="-XqIfu-6GYl3lcrzQxEl-21" style="edgeStyle=none;rounded=0;orthogonalLoop=1;jettySize=auto;html=1;exitX=0;exitY=1;exitDx=0;exitDy=0;entryX=0;entryY=0;entryDx=0;entryDy=0;endSize=6;strokeColor=#666666;strokeWidth=2;endArrow=none;endFill=0;fontStyle=1;fillColor=#f5f5f5;" edge="1" parent="ixnJGF-VWS_1nKsYmfAi-1" source="-XqIfu-6GYl3lcrzQxEl-23" target="-XqIfu-6GYl3lcrzQxEl-28">
          <mxGeometry relative="1" as="geometry" />
        </mxCell>
        <mxCell id="-XqIfu-6GYl3lcrzQxEl-22" style="edgeStyle=none;rounded=0;orthogonalLoop=1;jettySize=auto;html=1;exitX=1;exitY=1;exitDx=0;exitDy=0;entryX=1;entryY=0;entryDx=0;entryDy=0;endSize=6;strokeColor=#666666;strokeWidth=2;endArrow=none;endFill=0;startArrow=none;startFill=0;fontStyle=1;fillColor=#f5f5f5;" edge="1" parent="ixnJGF-VWS_1nKsYmfAi-1" source="-XqIfu-6GYl3lcrzQxEl-23" target="-XqIfu-6GYl3lcrzQxEl-29">
          <mxGeometry relative="1" as="geometry" />
        </mxCell>
        <mxCell id="-XqIfu-6GYl3lcrzQxEl-23" value="&lt;font style=&quot;font-size: 25px&quot;&gt;&lt;span&gt;entry&lt;sub&gt;B&lt;/sub&gt;&lt;/span&gt;&lt;/font&gt;" style="whiteSpace=wrap;html=1;aspect=fixed;fontStyle=1;fillColor=#f5f5f5;strokeColor=#666666;fontColor=#333333;" vertex="1" parent="ixnJGF-VWS_1nKsYmfAi-1">
          <mxGeometry x="475" y="120" width="80" height="80" as="geometry" />
        </mxCell>
        <mxCell id="-XqIfu-6GYl3lcrzQxEl-24" value="&lt;font style=&quot;font-size: 50px&quot;&gt;···&lt;/font&gt;" style="whiteSpace=wrap;html=1;aspect=fixed;fontStyle=1;fillColor=#f5f5f5;strokeColor=#666666;fontColor=#333333;" vertex="1" parent="ixnJGF-VWS_1nKsYmfAi-1">
          <mxGeometry x="555" y="120" width="80" height="80" as="geometry" />
        </mxCell>
        <mxCell id="-XqIfu-6GYl3lcrzQxEl-25" value="&lt;font style=&quot;font-size: 25px&quot;&gt;&lt;span&gt;entry&lt;sub&gt;2&lt;/sub&gt;&lt;/span&gt;&lt;/font&gt;" style="whiteSpace=wrap;html=1;aspect=fixed;fontStyle=1;fillColor=#f5f5f5;strokeColor=#666666;fontColor=#333333;" vertex="1" parent="ixnJGF-VWS_1nKsYmfAi-1">
          <mxGeometry x="635" y="120" width="80" height="80" as="geometry" />
        </mxCell>
        <mxCell id="-XqIfu-6GYl3lcrzQxEl-26" value="&lt;font style=&quot;font-size: 25px&quot;&gt;&lt;span&gt;entry&lt;sub&gt;1&lt;/sub&gt;&lt;/span&gt;&lt;/font&gt;" style="whiteSpace=wrap;html=1;aspect=fixed;fontStyle=1;fillColor=#f5f5f5;strokeColor=#666666;fontColor=#333333;" vertex="1" parent="ixnJGF-VWS_1nKsYmfAi-1">
          <mxGeometry x="715" y="120" width="80" height="80" as="geometry" />
        </mxCell>
        <mxCell id="-XqIfu-6GYl3lcrzQxEl-27" value="&lt;font style=&quot;font-size: 35px&quot;&gt;bucket&lt;/font&gt;" style="text;html=1;align=center;verticalAlign=middle;resizable=0;points=[];autosize=1;fontStyle=1;" vertex="1" parent="ixnJGF-VWS_1nKsYmfAi-1">
          <mxGeometry x="570" y="70" width="130" height="30" as="geometry" />
        </mxCell>
        <mxCell id="-XqIfu-6GYl3lcrzQxEl-28" value="&lt;font style=&quot;font-size: 25px&quot;&gt;fingerprint&lt;/font&gt;" style="rounded=0;whiteSpace=wrap;html=1;fontStyle=1;fillColor=#f5f5f5;strokeColor=#666666;fontColor=#333333;" vertex="1" parent="ixnJGF-VWS_1nKsYmfAi-1">
          <mxGeometry x="360" y="320" width="160" height="80" as="geometry" />
        </mxCell>
        <mxCell id="-XqIfu-6GYl3lcrzQxEl-29" value="&lt;font style=&quot;font-size: 25px&quot;&gt;counter&lt;/font&gt;" style="rounded=0;whiteSpace=wrap;html=1;fontStyle=1;fillColor=#f5f5f5;strokeColor=#666666;fontColor=#333333;" vertex="1" parent="ixnJGF-VWS_1nKsYmfAi-1">
          <mxGeometry x="520" y="320" width="160" height="80" as="geometry" />
        </mxCell>
        <mxCell id="-XqIfu-6GYl3lcrzQxEl-30" value="&lt;font style=&quot;font-size: 35px&quot;&gt;entry&lt;/font&gt;" style="text;html=1;align=center;verticalAlign=middle;resizable=0;points=[];autosize=1;fontStyle=1;" vertex="1" parent="ixnJGF-VWS_1nKsYmfAi-1">
          <mxGeometry x="470" y="413" width="100" height="30" as="geometry" />
        </mxCell>
        <mxCell id="-XqIfu-6GYl3lcrzQxEl-31" style="rounded=0;orthogonalLoop=1;jettySize=auto;html=1;startArrow=none;startFill=0;endArrow=classic;endFill=1;endSize=6;strokeColor=#666666;strokeWidth=2;exitX=0.287;exitY=0.483;exitDx=0;exitDy=0;exitPerimeter=0;fillColor=#f5f5f5;" edge="1" parent="ixnJGF-VWS_1nKsYmfAi-1" source="-XqIfu-6GYl3lcrzQxEl-32">
          <mxGeometry relative="1" as="geometry">
            <mxPoint x="-200" y="574" as="targetPoint" />
            <mxPoint x="-40" y="600" as="sourcePoint" />
          </mxGeometry>
        </mxCell>
        <mxCell id="-XqIfu-6GYl3lcrzQxEl-32" value="&lt;font style=&quot;font-size: 35px&quot;&gt;$$\frac{m}{2}$$&lt;/font&gt;" style="text;html=1;align=center;verticalAlign=middle;resizable=0;points=[];autosize=1;" vertex="1" parent="ixnJGF-VWS_1nKsYmfAi-1">
          <mxGeometry x="-90" y="560" width="260" height="30" as="geometry" />
        </mxCell>
        <mxCell id="-XqIfu-6GYl3lcrzQxEl-33" style="rounded=0;orthogonalLoop=1;jettySize=auto;html=1;startArrow=none;startFill=0;endArrow=classic;endFill=1;endSize=6;strokeColor=#666666;strokeWidth=2;exitX=0.7;exitY=0.496;exitDx=0;exitDy=0;exitPerimeter=0;fillColor=#f5f5f5;" edge="1" parent="ixnJGF-VWS_1nKsYmfAi-1" source="-XqIfu-6GYl3lcrzQxEl-32">
          <mxGeometry relative="1" as="geometry">
            <mxPoint x="280" y="575" as="targetPoint" />
            <mxPoint x="488.0500000000002" y="599.5799999999999" as="sourcePoint" />
          </mxGeometry>
        </mxCell>
        <mxCell id="-XqIfu-6GYl3lcrzQxEl-35" value="&lt;font style=&quot;font-size: 35px&quot;&gt;$$h_{1}(e) = hash(e)$$&lt;/font&gt;" style="text;html=1;align=center;verticalAlign=middle;resizable=0;points=[];autosize=1;strokeColor=none;" vertex="1" parent="ixnJGF-VWS_1nKsYmfAi-1">
          <mxGeometry x="-310" y="660" width="380" height="30" as="geometry" />
        </mxCell>
        <mxCell id="-XqIfu-6GYl3lcrzQxEl-36" value="&lt;font style=&quot;font-size: 35px&quot;&gt;$$h_{2}(e) = h_{1}(e) \oplus hash(e&#39;s\ fingerprint)$$&lt;/font&gt;" style="text;html=1;align=center;verticalAlign=middle;resizable=0;points=[];autosize=1;strokeColor=none;" vertex="1" parent="ixnJGF-VWS_1nKsYmfAi-1">
          <mxGeometry x="70" y="660" width="810" height="30" as="geometry" />
        </mxCell>
        <mxCell id="D7BLiVb56YLApS2BH-3u-5" value="" style="rounded=0;whiteSpace=wrap;html=1;shadow=0;strokeColor=#6c8ebf;fillColor=#dae8fc;" vertex="1" parent="ixnJGF-VWS_1nKsYmfAi-1">
          <mxGeometry x="-80" y="-140" width="120" height="60" as="geometry" />
        </mxCell>
        <mxCell id="D7BLiVb56YLApS2BH-3u-6" value="" style="rounded=0;whiteSpace=wrap;html=1;shadow=0;strokeColor=#6c8ebf;fillColor=#dae8fc;" vertex="1" parent="ixnJGF-VWS_1nKsYmfAi-1">
          <mxGeometry x="40" y="-140" width="120" height="60" as="geometry" />
        </mxCell>
        <mxCell id="D7BLiVb56YLApS2BH-3u-7" value="" style="rounded=0;whiteSpace=wrap;html=1;shadow=0;strokeColor=#6c8ebf;fillColor=#dae8fc;" vertex="1" parent="ixnJGF-VWS_1nKsYmfAi-1">
          <mxGeometry x="160" y="-140" width="120" height="60" as="geometry" />
        </mxCell>
        <mxCell id="D7BLiVb56YLApS2BH-3u-8" value="" style="rounded=0;whiteSpace=wrap;html=1;shadow=0;strokeColor=#6c8ebf;fillColor=#dae8fc;" vertex="1" parent="ixnJGF-VWS_1nKsYmfAi-1">
          <mxGeometry x="279" y="-140" width="120" height="60" as="geometry" />
        </mxCell>
        <mxCell id="D7BLiVb56YLApS2BH-3u-9" value="&lt;font style=&quot;font-size: 50px&quot;&gt;···&lt;/font&gt;" style="rounded=0;whiteSpace=wrap;html=1;shadow=0;strokeColor=#000000;fillColor=none;gradientColor=none;" vertex="1" parent="ixnJGF-VWS_1nKsYmfAi-1">
          <mxGeometry x="400" y="-140" width="120" height="60" as="geometry" />
        </mxCell>
        <mxCell id="D7BLiVb56YLApS2BH-3u-10" value="" style="rounded=0;whiteSpace=wrap;html=1;shadow=0;strokeColor=#6c8ebf;fillColor=#dae8fc;" vertex="1" parent="ixnJGF-VWS_1nKsYmfAi-1">
          <mxGeometry x="520" y="-140" width="120" height="60" as="geometry" />
        </mxCell>
        <mxCell id="5GyCDiw_aOwiqqZgQbfZ-3" style="edgeStyle=none;curved=1;jumpStyle=gap;jumpSize=10;orthogonalLoop=1;jettySize=auto;html=1;exitX=0;exitY=0;exitDx=0;exitDy=0;entryX=0;entryY=1;entryDx=0;entryDy=0;startArrow=none;startFill=0;endArrow=none;endFill=0;strokeColor=#000000;strokeWidth=3;" edge="1" parent="ixnJGF-VWS_1nKsYmfAi-1" source="D7BLiVb56YLApS2BH-3u-11" target="5GyCDiw_aOwiqqZgQbfZ-1">
          <mxGeometry relative="1" as="geometry" />
        </mxCell>
        <mxCell id="D7BLiVb56YLApS2BH-3u-11" value="" style="rounded=0;whiteSpace=wrap;html=1;shadow=0;strokeColor=#6c8ebf;fillColor=#dae8fc;" vertex="1" parent="ixnJGF-VWS_1nKsYmfAi-1">
          <mxGeometry x="640" y="-140" width="120" height="60" as="geometry" />
        </mxCell>
        <mxCell id="5GyCDiw_aOwiqqZgQbfZ-4" style="edgeStyle=none;curved=1;jumpStyle=gap;jumpSize=10;orthogonalLoop=1;jettySize=auto;html=1;exitX=0;exitY=0;exitDx=0;exitDy=0;entryX=1;entryY=1;entryDx=0;entryDy=0;startArrow=none;startFill=0;endArrow=none;endFill=0;strokeColor=#000000;strokeWidth=3;" edge="1" parent="ixnJGF-VWS_1nKsYmfAi-1" source="D7BLiVb56YLApS2BH-3u-12" target="5GyCDiw_aOwiqqZgQbfZ-2">
          <mxGeometry relative="1" as="geometry" />
        </mxCell>
        <mxCell id="D7BLiVb56YLApS2BH-3u-12" value="" style="rounded=0;whiteSpace=wrap;html=1;shadow=0;strokeColor=#6c8ebf;fillColor=#dae8fc;" vertex="1" parent="ixnJGF-VWS_1nKsYmfAi-1">
          <mxGeometry x="760" y="-140" width="120" height="60" as="geometry" />
        </mxCell>
        <mxCell id="D7BLiVb56YLApS2BH-3u-13" value="" style="rounded=0;whiteSpace=wrap;html=1;shadow=0;strokeColor=#6c8ebf;fillColor=#dae8fc;" vertex="1" parent="ixnJGF-VWS_1nKsYmfAi-1">
          <mxGeometry x="-200" y="-140" width="120" height="60" as="geometry" />
        </mxCell>
        <mxCell id="D7BLiVb56YLApS2BH-3u-16" style="edgeStyle=none;rounded=0;jumpStyle=gap;jumpSize=10;orthogonalLoop=1;jettySize=auto;html=1;startArrow=none;startFill=0;endArrow=classic;endFill=1;endSize=6;strokeColor=#000000;strokeWidth=3;" edge="1" parent="ixnJGF-VWS_1nKsYmfAi-1" source="D7BLiVb56YLApS2BH-3u-15">
          <mxGeometry relative="1" as="geometry">
            <mxPoint x="879.9999999999995" y="-35" as="targetPoint" />
          </mxGeometry>
        </mxCell>
        <mxCell id="D7BLiVb56YLApS2BH-3u-17" style="edgeStyle=none;rounded=0;jumpStyle=gap;jumpSize=10;orthogonalLoop=1;jettySize=auto;html=1;startArrow=none;startFill=0;endArrow=classic;endFill=1;endSize=6;strokeColor=#000000;strokeWidth=3;" edge="1" parent="ixnJGF-VWS_1nKsYmfAi-1" source="D7BLiVb56YLApS2BH-3u-15">
          <mxGeometry relative="1" as="geometry">
            <mxPoint x="-200" y="-35" as="targetPoint" />
          </mxGeometry>
        </mxCell>
        <mxCell id="D7BLiVb56YLApS2BH-3u-15" value="&lt;font style=&quot;font-size: 35px&quot;&gt;$$K$$&lt;/font&gt;" style="text;html=1;align=center;verticalAlign=middle;resizable=0;points=[];autosize=1;strokeColor=none;" vertex="1" parent="ixnJGF-VWS_1nKsYmfAi-1">
          <mxGeometry x="279" y="-50" width="120" height="30" as="geometry" />
        </mxCell>
        <mxCell id="D7BLiVb56YLApS2BH-3u-21" style="edgeStyle=none;rounded=0;jumpStyle=gap;jumpSize=10;orthogonalLoop=1;jettySize=auto;html=1;startArrow=none;startFill=0;endArrow=classic;endFill=1;endSize=6;strokeColor=#000000;strokeWidth=3;exitX=0;exitY=1;exitDx=0;exitDy=0;" edge="1" parent="ixnJGF-VWS_1nKsYmfAi-1" source="NqLgnIdzLpOWNiTf5Q1N-0">
          <mxGeometry relative="1" as="geometry">
            <mxPoint x="-160.82999999999998" y="160" as="targetPoint" />
            <mxPoint x="80" y="-400" as="sourcePoint" />
          </mxGeometry>
        </mxCell>
        <mxCell id="D7BLiVb56YLApS2BH-3u-20" style="edgeStyle=none;rounded=0;jumpStyle=gap;jumpSize=10;orthogonalLoop=1;jettySize=auto;html=1;startArrow=none;startFill=0;endArrow=classic;endFill=1;endSize=6;strokeColor=#000000;strokeWidth=3;exitX=0.5;exitY=1;exitDx=0;exitDy=0;" edge="1" parent="ixnJGF-VWS_1nKsYmfAi-1" source="NqLgnIdzLpOWNiTf5Q1N-0">
          <mxGeometry relative="1" as="geometry">
            <mxPoint x="159.17" y="490" as="targetPoint" />
            <mxPoint x="159" y="-330" as="sourcePoint" />
          </mxGeometry>
        </mxCell>
        <mxCell id="5GyCDiw_aOwiqqZgQbfZ-1" value="&lt;font style=&quot;font-size: 25px&quot;&gt;fingerprint&lt;/font&gt;" style="rounded=0;whiteSpace=wrap;html=1;fontStyle=1;fillColor=#dae8fc;strokeColor=#6c8ebf;" vertex="1" parent="ixnJGF-VWS_1nKsYmfAi-1">
          <mxGeometry x="540" y="-300" width="160" height="60" as="geometry" />
        </mxCell>
        <mxCell id="5GyCDiw_aOwiqqZgQbfZ-2" value="&lt;font style=&quot;font-size: 25px&quot;&gt;counter&lt;/font&gt;" style="rounded=0;whiteSpace=wrap;html=1;fontStyle=1;fillColor=#dae8fc;strokeColor=#6c8ebf;" vertex="1" parent="ixnJGF-VWS_1nKsYmfAi-1">
          <mxGeometry x="700" y="-300" width="160" height="60" as="geometry" />
        </mxCell>
        <mxCell id="5GyCDiw_aOwiqqZgQbfZ-6" value="&lt;font style=&quot;font-size: 35px&quot;&gt;heap&lt;/font&gt;" style="text;html=1;align=center;verticalAlign=middle;resizable=0;points=[];autosize=1;strokeColor=none;fontStyle=1" vertex="1" parent="ixnJGF-VWS_1nKsYmfAi-1">
          <mxGeometry x="410" y="-190" width="100" height="30" as="geometry" />
        </mxCell>
        <mxCell id="NqLgnIdzLpOWNiTf5Q1N-0" value="&lt;font style=&quot;font-size: 40px&quot;&gt;$$e$$&lt;/font&gt;" style="ellipse;whiteSpace=wrap;html=1;aspect=fixed;shadow=0;strokeColor=#6c8ebf;fillColor=#dae8fc;" vertex="1" parent="ixnJGF-VWS_1nKsYmfAi-1">
          <mxGeometry x="125" y="-400" width="70" height="70" as="geometry" />
        </mxCell>
      </root>
    </mxGraphModel>
  </diagram>
  <diagram name="第 1 页 的副本" id="nnIYxrKfx28HGByZrJ9H">
    <mxGraphModel dx="1822" dy="1128" grid="1" gridSize="10" guides="1" tooltips="1" connect="1" arrows="1" fold="1" page="0" pageScale="1" pageWidth="827" pageHeight="1169" math="1" shadow="0">
      <root>
        <mxCell id="q14OzXegaW_YrBgm3IZ7-0" />
        <mxCell id="q14OzXegaW_YrBgm3IZ7-1" parent="q14OzXegaW_YrBgm3IZ7-0" />
        <mxCell id="olXIdbRZdQmqtT2ikhf5-2" value="&lt;font style=&quot;font-size: 20px&quot;&gt;&lt;b&gt;entry&lt;sub&gt;2&lt;/sub&gt;&lt;/b&gt;&lt;br&gt;12 bits&lt;/font&gt;" style="whiteSpace=wrap;html=1;aspect=fixed;shadow=0;strokeColor=#666666;fillColor=#f5f5f5;fontColor=#333333;" vertex="1" parent="q14OzXegaW_YrBgm3IZ7-1">
          <mxGeometry x="40" y="120" width="80" height="80" as="geometry" />
        </mxCell>
        <mxCell id="Vs7hJK50xRbwurwdmOdf-2" style="jumpStyle=gap;jumpSize=10;orthogonalLoop=1;jettySize=auto;html=1;exitX=0;exitY=0;exitDx=0;exitDy=0;entryX=0;entryY=1;entryDx=0;entryDy=0;startArrow=none;startFill=0;endArrow=none;endFill=0;strokeColor=#666666;strokeWidth=2;fillColor=#f5f5f5;" edge="1" parent="q14OzXegaW_YrBgm3IZ7-1" source="olXIdbRZdQmqtT2ikhf5-3" target="Vs7hJK50xRbwurwdmOdf-0">
          <mxGeometry relative="1" as="geometry" />
        </mxCell>
        <mxCell id="zPeb9_U1IlISBgazCzxT-0" style="edgeStyle=none;jumpStyle=gap;jumpSize=10;orthogonalLoop=1;jettySize=auto;html=1;exitX=1;exitY=0;exitDx=0;exitDy=0;entryX=1;entryY=1;entryDx=0;entryDy=0;startArrow=none;startFill=0;endArrow=none;endFill=0;strokeColor=#666666;strokeWidth=2;fillColor=#f5f5f5;" edge="1" parent="q14OzXegaW_YrBgm3IZ7-1" source="olXIdbRZdQmqtT2ikhf5-3" target="Vs7hJK50xRbwurwdmOdf-1">
          <mxGeometry relative="1" as="geometry" />
        </mxCell>
        <mxCell id="olXIdbRZdQmqtT2ikhf5-3" value="&lt;font style=&quot;font-size: 20px&quot;&gt;&lt;b&gt;entry&lt;sub&gt;1&lt;/sub&gt;&lt;/b&gt;&lt;br&gt;12 bits&lt;/font&gt;" style="whiteSpace=wrap;html=1;aspect=fixed;shadow=0;strokeColor=#666666;fillColor=#f5f5f5;fontColor=#333333;" vertex="1" parent="q14OzXegaW_YrBgm3IZ7-1">
          <mxGeometry x="120" y="120" width="80" height="80" as="geometry" />
        </mxCell>
        <mxCell id="zPeb9_U1IlISBgazCzxT-4" style="edgeStyle=none;jumpStyle=gap;jumpSize=10;orthogonalLoop=1;jettySize=auto;html=1;exitX=1;exitY=1;exitDx=0;exitDy=0;entryX=1;entryY=0;entryDx=0;entryDy=0;startArrow=none;startFill=0;endArrow=none;endFill=0;strokeColor=#666666;strokeWidth=2;fillColor=#f5f5f5;" edge="1" parent="q14OzXegaW_YrBgm3IZ7-1" source="olXIdbRZdQmqtT2ikhf5-4" target="zPeb9_U1IlISBgazCzxT-2">
          <mxGeometry relative="1" as="geometry" />
        </mxCell>
        <mxCell id="olXIdbRZdQmqtT2ikhf5-4" value="&lt;font style=&quot;font-size: 23px&quot;&gt;&lt;b&gt;entry&lt;sub&gt;3&lt;/sub&gt;&lt;/b&gt;&lt;br&gt;16 bits&lt;/font&gt;" style="rounded=0;whiteSpace=wrap;html=1;shadow=0;strokeColor=#666666;fillColor=#f5f5f5;fontColor=#333333;" vertex="1" parent="q14OzXegaW_YrBgm3IZ7-1">
          <mxGeometry x="-80" y="120" width="120" height="80" as="geometry" />
        </mxCell>
        <mxCell id="zPeb9_U1IlISBgazCzxT-3" style="edgeStyle=none;jumpStyle=gap;jumpSize=10;orthogonalLoop=1;jettySize=auto;html=1;exitX=1;exitY=1;exitDx=0;exitDy=0;entryX=0;entryY=0;entryDx=0;entryDy=0;startArrow=none;startFill=0;endArrow=none;endFill=0;strokeColor=#666666;strokeWidth=2;fillColor=#f5f5f5;" edge="1" parent="q14OzXegaW_YrBgm3IZ7-1" source="olXIdbRZdQmqtT2ikhf5-5" target="zPeb9_U1IlISBgazCzxT-1">
          <mxGeometry relative="1" as="geometry" />
        </mxCell>
        <mxCell id="zPeb9_U1IlISBgazCzxT-7" style="edgeStyle=none;jumpStyle=gap;jumpSize=10;orthogonalLoop=1;jettySize=auto;html=1;exitX=0;exitY=0;exitDx=0;exitDy=0;entryX=0;entryY=1;entryDx=0;entryDy=0;startArrow=none;startFill=0;endArrow=none;endFill=0;strokeColor=#666666;strokeWidth=2;fillColor=#f5f5f5;" edge="1" parent="q14OzXegaW_YrBgm3IZ7-1" source="olXIdbRZdQmqtT2ikhf5-5" target="zPeb9_U1IlISBgazCzxT-5">
          <mxGeometry relative="1" as="geometry" />
        </mxCell>
        <mxCell id="zPeb9_U1IlISBgazCzxT-8" style="edgeStyle=none;jumpStyle=gap;jumpSize=10;orthogonalLoop=1;jettySize=auto;html=1;exitX=1;exitY=0;exitDx=0;exitDy=0;entryX=1;entryY=1;entryDx=0;entryDy=0;startArrow=none;startFill=0;endArrow=none;endFill=0;strokeColor=#666666;strokeWidth=2;fillColor=#f5f5f5;" edge="1" parent="q14OzXegaW_YrBgm3IZ7-1" source="olXIdbRZdQmqtT2ikhf5-5" target="zPeb9_U1IlISBgazCzxT-6">
          <mxGeometry relative="1" as="geometry" />
        </mxCell>
        <mxCell id="olXIdbRZdQmqtT2ikhf5-5" value="&lt;font style=&quot;font-size: 25px&quot;&gt;&lt;b&gt;entry&lt;sub&gt;4&lt;/sub&gt;&lt;/b&gt;&lt;br&gt;24 bits&lt;/font&gt;" style="rounded=0;whiteSpace=wrap;html=1;shadow=0;strokeColor=#666666;fillColor=#f5f5f5;fontColor=#333333;" vertex="1" parent="q14OzXegaW_YrBgm3IZ7-1">
          <mxGeometry x="-240" y="120" width="160" height="80" as="geometry" />
        </mxCell>
        <mxCell id="Vs7hJK50xRbwurwdmOdf-0" value="&lt;font style=&quot;font-size: 20px&quot;&gt;&lt;b&gt;fingerprint&lt;/b&gt;&lt;br&gt;8 bits&lt;/font&gt;" style="rounded=0;whiteSpace=wrap;html=1;shadow=0;strokeColor=#666666;fillColor=#f5f5f5;fontColor=#333333;" vertex="1" parent="q14OzXegaW_YrBgm3IZ7-1">
          <mxGeometry x="40" y="-20" width="120" height="60" as="geometry" />
        </mxCell>
        <mxCell id="Vs7hJK50xRbwurwdmOdf-1" value="&lt;font style=&quot;font-size: 20px&quot;&gt;&lt;b&gt;counter&lt;/b&gt;&lt;br&gt;4 bits&lt;/font&gt;" style="rounded=0;whiteSpace=wrap;html=1;shadow=0;strokeColor=#666666;fillColor=#f5f5f5;fontColor=#333333;" vertex="1" parent="q14OzXegaW_YrBgm3IZ7-1">
          <mxGeometry x="160" y="-20" width="120" height="60" as="geometry" />
        </mxCell>
        <mxCell id="zPeb9_U1IlISBgazCzxT-1" value="&lt;font style=&quot;font-size: 20px&quot;&gt;&lt;b&gt;fingerprint&lt;/b&gt;&lt;br&gt;8 bits&lt;/font&gt;" style="rounded=0;whiteSpace=wrap;html=1;shadow=0;strokeColor=#666666;fillColor=#f5f5f5;fontColor=#333333;" vertex="1" parent="q14OzXegaW_YrBgm3IZ7-1">
          <mxGeometry x="-140" y="280" width="120" height="60" as="geometry" />
        </mxCell>
        <mxCell id="zPeb9_U1IlISBgazCzxT-2" value="&lt;font style=&quot;font-size: 20px&quot;&gt;&lt;b&gt;counter&lt;/b&gt;&lt;br&gt;8 bits&lt;/font&gt;" style="rounded=0;whiteSpace=wrap;html=1;shadow=0;strokeColor=#666666;fillColor=#f5f5f5;fontColor=#333333;" vertex="1" parent="q14OzXegaW_YrBgm3IZ7-1">
          <mxGeometry x="-20" y="280" width="120" height="60" as="geometry" />
        </mxCell>
        <mxCell id="zPeb9_U1IlISBgazCzxT-5" value="&lt;font style=&quot;font-size: 20px&quot;&gt;&lt;b&gt;fingerprint&lt;/b&gt;&lt;br&gt;8 bits&lt;/font&gt;" style="rounded=0;whiteSpace=wrap;html=1;shadow=0;strokeColor=#666666;fillColor=#f5f5f5;fontColor=#333333;" vertex="1" parent="q14OzXegaW_YrBgm3IZ7-1">
          <mxGeometry x="-280" y="-20" width="120" height="60" as="geometry" />
        </mxCell>
        <mxCell id="zPeb9_U1IlISBgazCzxT-6" value="&lt;font style=&quot;font-size: 20px&quot;&gt;&lt;b&gt;counter&lt;/b&gt;&lt;br&gt;16 bits&lt;/font&gt;" style="rounded=0;whiteSpace=wrap;html=1;shadow=0;strokeColor=#666666;fillColor=#f5f5f5;fontColor=#333333;" vertex="1" parent="q14OzXegaW_YrBgm3IZ7-1">
          <mxGeometry x="-160" y="-20" width="120" height="60" as="geometry" />
        </mxCell>
        <mxCell id="R2zaPObgeEGxb-4r9kzs-0" value="&lt;font size=&quot;1&quot;&gt;&lt;b style=&quot;font-size: 40px&quot;&gt;bucket&lt;/b&gt;&lt;/font&gt;" style="text;html=1;align=center;verticalAlign=middle;resizable=0;points=[];autosize=1;strokeColor=none;" vertex="1" parent="q14OzXegaW_YrBgm3IZ7-1">
          <mxGeometry x="-70" y="-80" width="140" height="30" as="geometry" />
        </mxCell>
      </root>
    </mxGraphModel>
  </diagram>
</mxfile>
